<svg width="470" height="61" viewBox="0 0 470 61" fill="none" xmlns="http://www.w3.org/2000/svg">
<path fill-rule="evenodd" clip-rule="evenodd" d="M80.1913 15.967V6.53192H110.757V15.967H103.206V51.8926H110.757V60.9648H80.1913V51.8926H88.1025V15.967H80.1913ZM115.073 18.1443V27.2164H123.703V51.8926H116.511V60.9648H147.077V51.8926H139.526V27.2164H156.787V60.9648H181.239V51.8926H172.609V27.2164C172.969 24.9181 171.746 19.8861 163.979 18.1443H115.073ZM178.722 27.2164V18.1443H198.141L208.569 47.9009L217.919 18.1443H238.776V27.2164H232.303L218.998 60.9648H198.141L185.555 27.2164H178.722ZM243.451 18.1443V27.2164H251.362V51.8926H243.451V60.9648H274.376V51.8926H266.465V18.1443H243.451ZM251.362 15.967V8.34635H266.465V15.967H251.362ZM390.888 18.1443H340.543C338.865 18.0233 335.437 18.5797 335.149 21.7731C334.862 24.9665 335.029 35.4418 335.149 40.2803C334.79 41.4899 335.365 43.9092 340.543 43.9092H367.154V51.8926H350.252V47.9009H333.711V60.9648H377.942C379.021 60.9648 381.322 60.3116 381.897 57.6988C382.473 55.086 382.137 43.7882 381.897 38.4659C382.017 37.3772 381.394 35.1999 377.942 35.1999H350.252V27.2164H390.888V18.1443ZM394.843 18.1443V27.2164H417.858V37.0143C411.145 37.1353 396.641 37.3046 392.326 37.0143C388.011 36.724 386.452 39.0707 386.213 40.2803C386.333 44.9978 386.5 55.086 386.213 57.6988C385.925 60.3116 390.168 60.9648 392.326 60.9648H441.951V51.8926H434.399C434.28 44.7559 434.112 29.3211 434.399 24.6762C434.687 20.0313 430.444 18.3862 428.286 18.1443H394.843ZM436.557 18.1443V27.2164H443.389V50.4411L457.774 60.9648H470V51.8926H459.212V27.2164H470V18.1443H459.212V6.53192H443.389V18.1443H436.557ZM281.209 54.7957V24.6762C281.209 19.4507 287.202 18.1443 290.199 18.1443H320.406C325.008 18.1443 327.837 22.4989 328.676 24.6762C328.796 32.4178 328.964 49.2799 328.676 54.7957C328.389 60.3116 323.043 61.2067 320.406 60.9648H288.761C284.445 60.9648 281.928 56.8521 281.209 54.7957ZM295.233 51.8926H313.213V27.2164H295.233V51.8926ZM417.858 51.8926H402.754V44.9978H417.858V51.8926Z" fill="black"/>
<path fill-rule="evenodd" clip-rule="evenodd" d="M12.2265 27.5793V50.0782L26.9702 51.1669V47.1751H20.4974V38.8288H38.4775V51.1669H51.0635V27.5793H12.2265ZM38.4775 36.2886V30.8453H27.6894V36.2886H38.4775Z" fill="#E1352A"/>
<rect x="2" y="2" width="58.5708" height="56.9648" rx="15" stroke="#E1352A" stroke-width="4"/>
<path fill-rule="evenodd" clip-rule="evenodd" d="M40.7483 25.402V22.361C40.7483 17.3334 36.6726 13.2577 31.645 13.2577C26.6174 13.2577 22.5417 17.3334 22.5417 22.361V25.402H16.5417V22.361C16.5417 14.0197 23.3037 7.25769 31.645 7.25769C39.9863 7.25769 46.7483 14.0197 46.7483 22.361V25.402H40.7483Z" fill="#E1352A"/>
</svg>
